# xmcd CD database file
#
# Track frame offsets:
#	150
#	7912
#	27348
#	48829
#	66674
#	104064
#	124335
#	193210
#	230813
#	285883
#	290265
#	310006
#
# Disc length: 4187 seconds
#
# Revision: 0
# Processed by: cddbd v1.5.2PL0 Copyright (c) Steve Scherf et al.
# Submitted via: CDex 1.51
#
DISCID=ae10590c
DTITLE=Centerpointe Research Institute (Holosync) - The Inside Secrets of How to be Happy, Peacful, and Successful...All the Time [CD5]
DYEAR=2003
DGENRE=New Age
TTITLE0=Questions and Answers
TTITLE1=Questions and Answers
TTITLE2=Questions and Answers
TTITLE3=Questions and Answers
TTITLE4=Questions and Answers
TTITLE5=Questions and Answers
TTITLE6=Principle #6: Concious Change
TTITLE7=Questions and Answers
TTITLE8=Principle 7#: Witnessing
TTITLE9=Questions and Answers
TTITLE10=Questions and Answers
TTITLE11=Questions and Answers
EXTD=YEAR: 2003
EXTT0=
EXTT1=
EXTT2=
EXTT3=
EXTT4=
EXTT5=
EXTT6=
EXTT7=
EXTT8=
EXTT9=
EXTT10=
EXTT11=
PLAYORDER=
